<svg xmlns="http://www.w3.org/2000/svg" width="199.134" height="35.802" viewBox="0 0 199.134 35.802"><g transform="translate(-0.081 0.1)"><path d="M7.489,100.757a10.5,10.5,0,0,0-5,1.492,5.121,5.121,0,0,0-2.274,3.138,4.563,4.563,0,0,0-.126,1.269,5.638,5.638,0,0,0,.061,1.338c.438,2.558,2.043,3.981,6.454,5.716,2.566,1.009,3.957,1.747,4.646,2.457a2,2,0,0,1,.612,1.678,2.119,2.119,0,0,1-.373,1.172,3.5,3.5,0,0,1-2.461,1.228,16.594,16.594,0,0,1-3.174,0,19.922,19.922,0,0,1-5.607-1.674l-.13-.057v4.18l.3.134a15.084,15.084,0,0,0,5.145,1.159c.77.053,2.68.053,3.345,0a10.535,10.535,0,0,0,5.242-1.646,6.037,6.037,0,0,0,2.461-5.445,5.248,5.248,0,0,0-1.569-3.774c-1-1.005-2.149-1.638-5.1-2.809a23.752,23.752,0,0,1-3.965-1.828,2.236,2.236,0,0,1-1.155-1.909c0-1.107.819-1.792,2.408-2.019a13.629,13.629,0,0,1,6.831,1.168,5.533,5.533,0,0,0,.62.219c.049-.016,1.577-3.564,1.553-3.6a12.82,12.82,0,0,0-1.723-.685,18.2,18.2,0,0,0-3.851-.831,26.875,26.875,0,0,0-3.17-.061Zm42.515,0c-2.728.211-4.719.985-6.028,2.347a5.122,5.122,0,0,0-1.4,4.038,5.333,5.333,0,0,0,2.7,4.687,21.723,21.723,0,0,0,4.082,1.982c2.611,1.058,3.665,1.618,4.378,2.331a1.954,1.954,0,0,1,.636,1.545,2.042,2.042,0,0,1-.632,1.618,3.713,3.713,0,0,1-2.092.92,15.449,15.449,0,0,1-3.3.016,20.044,20.044,0,0,1-5.392-1.585c-.174-.077-.32-.142-.328-.142s-.016.941-.016,2.088v2.088l.235.105a14.312,14.312,0,0,0,4.508,1.135,33.963,33.963,0,0,0,3.965.057,9.554,9.554,0,0,0,5.98-2.189,5.7,5.7,0,0,0,1.7-3.134,5.948,5.948,0,0,0,.093-1.447,5.79,5.79,0,0,0-.093-1.407,5.053,5.053,0,0,0-1.569-2.8c-1-.973-2.08-1.545-5.291-2.826-2.534-1.005-3.641-1.577-4.2-2.157a1.878,1.878,0,0,1,.438-3.081,5.117,5.117,0,0,1,2.039-.462,14.485,14.485,0,0,1,6.069,1.2c.373.142.689.259.709.259s1.524-3.434,1.549-3.568c.008-.049-.126-.122-.491-.272a18.6,18.6,0,0,0-5.076-1.289A26.722,26.722,0,0,0,50,100.757Zm34.139,0a19.8,19.8,0,0,0-5.558,1.257,9.5,9.5,0,0,0-1.439.677c0,.049,1.5,3.353,1.541,3.393a2.178,2.178,0,0,0,.6-.211,22.757,22.757,0,0,1,3.187-1.143,11,11,0,0,1,3.134-.288,3.4,3.4,0,0,1,3.1,1.849,5.985,5.985,0,0,1,.474,2.643l.024.945h-.32c-.62,0-4.135.122-4.739.162a15.707,15.707,0,0,0-5.68,1.293,6.362,6.362,0,0,0-2.031,1.439,5.744,5.744,0,0,0-1.48,3.065,11.041,11.041,0,0,0-.016,2.692,5.869,5.869,0,0,0,4.585,5.234,9.054,9.054,0,0,0,2.757.251,7.889,7.889,0,0,0,5.347-1.65,13.6,13.6,0,0,0,1.5-1.512,1.56,1.56,0,0,1,.345-.353,4.4,4.4,0,0,1,.422,1.188c.2.649.414,1.354.478,1.557l.118.377H93.93l-.012-8.222c-.012-7.537-.016-8.254-.081-8.643a6.609,6.609,0,0,0-1.889-3.985,8.2,8.2,0,0,0-4.828-1.954,23.57,23.57,0,0,0-2.976-.061Zm5,13.022a7.779,7.779,0,0,1-.608,3.8,4.679,4.679,0,0,1-2.209,2.128,5.655,5.655,0,0,1-2.9.6,4.735,4.735,0,0,1-1.241-.085,2.748,2.748,0,0,1-2.214-1.974,3.138,3.138,0,0,1-.089-1.1A2.935,2.935,0,0,1,80,116.029c.446-1.455,1.569-2.291,3.637-2.7a18.1,18.1,0,0,1,3-.3c.726-.032,1.435-.065,1.581-.073s.414-.016.6-.02l.332-.008v.859ZM118.9,100.741a8.014,8.014,0,0,0-6.02,3c-.178.251-.268.336-.332.336a.111.111,0,0,1-.118-.1c-.016-.057-.166-.722-.336-1.472l-.312-1.366-1.893-.012L108,101.122v22.5h4.82l.016-6.4c.012-5.631.024-6.454.081-6.92a8.406,8.406,0,0,1,1.2-3.709,4.478,4.478,0,0,1,1.569-1.33,6.973,6.973,0,0,1,4.764-.324c1.419.495,2.2,1.63,2.453,3.572.053.418.061,1.427.061,7.8v7.314h4.869l-.016-7.893c-.016-8.639,0-8.205-.255-9.414-.665-3.219-2.741-5.064-6.178-5.5a22.685,22.685,0,0,0-2.473-.077Zm21.13.016a19.193,19.193,0,0,0-6.705,1.768,1.034,1.034,0,0,0-.276.17c0,.081,1.528,3.409,1.569,3.414a3.212,3.212,0,0,0,.389-.158,23.706,23.706,0,0,1,3.227-1.184,10.879,10.879,0,0,1,3.272-.324,3.343,3.343,0,0,1,3.409,2.761,5.8,5.8,0,0,1,.122,1.549l.02,1.127h-.3c-.6,0-4.123.122-4.695.162-4.642.328-7.447,1.642-8.651,4.042a7.085,7.085,0,0,0-.657,3.474,6.109,6.109,0,0,0,5.441,6.377,19.208,19.208,0,0,0,3.482,0,7.176,7.176,0,0,0,4.691-2.364c.239-.243.547-.58.685-.746a1.513,1.513,0,0,1,.316-.316c.053-.008.158.3.535,1.541l.47,1.553,1.731.012,1.727.008v-7.938c0-5.27-.016-8.088-.045-8.384a6.76,6.76,0,0,0-1.841-4.419A7.907,7.907,0,0,0,143,100.818a23.428,23.428,0,0,0-2.972-.061ZM145,114.387a8.336,8.336,0,0,1-.105,1.865,6.686,6.686,0,0,1-.438,1.309,5.125,5.125,0,0,1-3.535,2.615,7.7,7.7,0,0,1-2.85.045,2.738,2.738,0,0,1-2.3-2.595,4.5,4.5,0,0,1,.142-1.614c.478-1.654,1.946-2.538,4.776-2.87.495-.061,3.162-.2,4.009-.219l.32,0-.02,1.468Zm-125.531-5.23c.012,7.391.016,8.076.081,8.505a8.536,8.536,0,0,0,1.228,3.511,6.816,6.816,0,0,0,1.577,1.569,8.081,8.081,0,0,0,3.405,1.192,18.811,18.811,0,0,0,3.446,0,7.762,7.762,0,0,0,5.161-2.874c.227-.3.284-.357.369-.349s.109.053.426,1.451l.328,1.439,1.9.012,1.893.008v-22.5H34.457v6.049c0,3.641-.016,6.272-.041,6.6-.268,3.588-1.382,5.424-3.705,6.1a5.82,5.82,0,0,1-1.991.243,4.517,4.517,0,0,1-1.845-.239c-1.455-.495-2.291-1.739-2.509-3.758-.028-.264-.045-2.793-.045-7.695v-7.3H19.452Zm79,3.215v11.25H103.3v-22.5H98.471Zm55.906-4.561v15.811h3.632l.426-1.305.43-1.309.154-.012c.085-.008.166,0,.182.028a8.842,8.842,0,0,0,.993,1.066,7.9,7.9,0,0,0,4.447,1.893,15.483,15.483,0,0,0,2.295,0,7.713,7.713,0,0,0,5.534-3.085,8.282,8.282,0,0,0,.92-1.492,14.169,14.169,0,0,0,1.346-5.189,31.713,31.713,0,0,0-.024-3.973,12.971,12.971,0,0,0-1.837-5.878,7.63,7.63,0,0,0-5.546-3.551,14.7,14.7,0,0,0-2.736-.02,7.374,7.374,0,0,0-5.181,2.931c-.17.231-.292.357-.341.357-.073,0-.077-.02-.053-.255.122-1.257.154-2.659.17-7.155L159.2,92h-4.828v15.811Zm11.287-3.061a4.642,4.642,0,0,1,1.836.734,6.235,6.235,0,0,1,.511.45,7.2,7.2,0,0,1,1.759,4.431,26.988,26.988,0,0,1,.02,3.709,8.889,8.889,0,0,1-1.3,4.1,4.258,4.258,0,0,1-3.028,1.881,8.037,8.037,0,0,1-1.731-.02,4.4,4.4,0,0,1-3.969-3.308,15.208,15.208,0,0,1-.551-4.922c.105-4.476,1.228-6.454,3.989-7.01A7.5,7.5,0,0,1,165.663,104.75ZM100.177,92.568A2.273,2.273,0,0,0,98.3,94.307a4.538,4.538,0,0,0-.02,1.67,2.3,2.3,0,0,0,1.358,1.638,3.63,3.63,0,0,0,2.826-.146,2.441,2.441,0,0,0,1.058-1.476,4.5,4.5,0,0,0-.02-1.695,2.225,2.225,0,0,0-1.52-1.638,2.724,2.724,0,0,0-.977-.118A6,6,0,0,0,100.177,92.568ZM64.437,96.184c-.012.028-.377,1.091-.811,2.359s-.8,2.323-.819,2.339-.754.414-1.634.88l-1.6.851-.012,1.078-.008,1.078h3.037l.016,6.6c.012,5.972.02,6.645.085,7.087.491,3.434,2.266,5.185,5.615,5.538a18.351,18.351,0,0,0,3.085-.081,11.991,11.991,0,0,0,2.566-.637l.109-.061v-1.8a16.891,16.891,0,0,0-.041-1.8c-.02,0-.235.053-.474.122a13.391,13.391,0,0,1-2.055.369,7.177,7.177,0,0,1-1.865-.065,2.689,2.689,0,0,1-1.93-1.65c-.251-.649-.243-.4-.243-7.314v-6.3h6.365v-3.649H67.457V96.135h-1.5A7.168,7.168,0,0,0,64.437,96.184Z" transform="translate(0 -88.366)" fill="#484961"/><path d="M4397,298.1v12.1h4.5l-.012-10.837c-.012-10.269-.016-10.849-.085-11.137a3.025,3.025,0,0,0-1.391-2.055,4.224,4.224,0,0,0-1.845-.174H4397Z" transform="translate(-4218.664 -274.501)" fill="#67e0b6"/><path d="M4598,49.154V66.4h4.541V50.662c0-11.222-.012-15.843-.044-16.1a3.558,3.558,0,0,0-.929-2.092,2.131,2.131,0,0,0-.547-.426l-.243-.118-1.387-.012L4598,31.9Z" transform="translate(-4411.515 -30.703)" fill="#56ba97"/><path d="M4799,17.8V35.7h4.581l-.008-16.654-.012-16.65-.093-.345a6.169,6.169,0,0,0-.312-.795,2.536,2.536,0,0,0-1.066-1.2l-.271-.134-1.407-.012L4799-.1Z" transform="translate(-4604.366)" fill="#797ee0"/></g></svg>